<?xml version="1.0" encoding="iso-8859-1"?>
<!-- Generator: Adobe Illustrator 19.0.0, SVG Export Plug-In . SVG Version: 6.00 Build 0)  -->
<svg version="1.1" id="Layer_1" xmlns="http://www.w3.org/2000/svg" xmlns:xlink="http://www.w3.org/1999/xlink" x="0px" y="0px"
	 viewBox="0 0 512 512" style="enable-background:new 0 0 512 512;" xml:space="preserve">
<g>
	<g>
		<path d="M196.391,79.753h-14.817c-6.272,0-11.363,5.079-11.363,11.363c0,6.272,5.09,11.363,11.363,11.363h14.817
			c6.272,0,11.363-5.091,11.363-11.363C207.754,84.832,202.663,79.753,196.391,79.753z"/>
	</g>
</g>
<g>
	<g>
		<path d="M330.494,79.753h-14.817c-6.272,0-11.363,5.079-11.363,11.363c0,6.272,5.091,11.363,11.363,11.363h14.817
			c6.272,0,11.363-5.091,11.363-11.363C341.857,84.832,336.766,79.753,330.494,79.753z"/>
	</g>
</g>
<g>
	<g>
		<path d="M503.275,233.093c-11.556-11.556-31.804-11.624-57.03-0.205c-14.544,6.579-30.134,16.601-45.462,29.1l4.193-23.907
			c14.34-17.317,22.214-39.042,22.214-61.631c0-34.156-18.419-65.983-47.519-83.255c0.023-0.693,0.045-1.386,0.045-2.079
			c0-30.623-24.907-55.53-55.518-55.53c-26.725,0-49.098,18.976-54.359,44.167h-27.611c-5.261-25.191-27.634-44.167-54.359-44.167
			c-30.611,0-55.518,24.907-55.518,55.53c0,0.693,0.023,1.386,0.045,2.079c-29.1,17.271-47.519,49.098-47.519,83.255
			c0,4.204,0.273,8.442,0.818,12.613c2.42,18.589,10.124,35.849,22.316,50.11l4.125,23.566
			c-15.612-12.84-31.543-23.146-46.383-29.85c-25.214-11.42-45.474-11.351-57.03,0.205c-11.556,11.556-11.635,31.816-0.216,57.041
			c9.874,21.816,27.498,46.008,49.61,68.12c13.999,13.999,28.702,26.021,42.997,35.452H82.502c-6.272,0-11.363,5.091-11.363,11.363
			s5.091,11.363,11.363,11.363h80.244c2.318,0,6.499-1.738,6.613-1.67l-13.203,13.203c-5.125-0.727-10.51,0.864-14.442,4.806
			c-6.659,6.647-6.659,17.442,0,24.1c6.659,6.659,17.442,6.659,24.1,0c3.943-3.943,5.534-9.329,4.806-14.442l8.056-8.056v11.385
			c-4.136,3.113-6.818,8.045-6.818,13.613c0,9.42,7.624,17.044,17.044,17.044c9.408,0,17.044-7.624,17.044-17.044
			c0-5.568-2.682-10.499-6.818-13.613v-11.385l8.056,8.056c-0.727,5.113,0.864,10.499,4.806,14.442c6.647,6.659,17.442,6.659,24.1,0
			c6.659-6.659,6.659-17.453,0-24.1c-3.943-3.943-9.329-5.534-14.453-4.806l-13.192-13.192c7.908-5.659,13.272-14.624,14.056-24.862
			c11.056,2.67,22.407,4.022,33.895,4.022c11.26,0,22.362-1.295,33.191-3.852c0.818,10.17,6.17,19.067,14.033,24.691l-13.192,13.192
			c-5.125-0.727-10.51,0.864-14.453,4.806c-6.659,6.647-6.659,17.442,0,24.1c6.659,6.659,17.453,6.659,24.1,0
			c3.943-3.943,5.534-9.329,4.806-14.442l8.056-8.056v11.385c-4.136,3.113-6.818,8.045-6.818,13.613
			c0,9.42,7.636,17.044,17.044,17.044c9.42,0,17.044-7.624,17.044-17.044c0-5.568-2.682-10.499-6.818-13.613v-11.385l8.056,8.056
			c-0.727,5.113,0.864,10.499,4.806,14.442c6.659,6.659,17.442,6.659,24.1,0c6.659-6.659,6.659-17.453,0-24.1
			c-3.932-3.943-9.317-5.534-14.442-4.806l-11.533-11.533h85.914c6.272,0,11.363-5.091,11.363-11.363s-5.091-11.363-11.363-11.363
			h-19.407c14.294-9.431,28.998-21.453,42.997-35.452c22.112-22.112,39.735-46.303,49.61-68.12
			C514.911,264.908,514.831,244.648,503.275,233.093z M107.603,176.233c0.091-28.134,16.499-54.2,41.86-66.438v-0.023
			c4.534-2.193,7.227-7.227,6.204-12.408c-0.386-2.011-0.591-4.113-0.591-6.25c0-18.089,14.715-32.804,32.793-32.804
			c18.089,0,32.804,14.715,32.804,32.804c0,6.272,5.091,11.363,11.363,11.363h47.996c3.136,0,5.977-1.273,8.033-3.329
			s3.329-4.897,3.329-8.033c0-18.089,14.715-32.804,32.804-32.804c18.078,0,32.793,14.715,32.793,32.804
			c0,2.136-0.205,4.238-0.591,6.25c-1.023,5.181,1.67,10.215,6.204,12.408v0.023c25.362,12.238,41.769,38.304,41.86,66.438H107.603z
			 M111.102,198.959h289.852c-3.159,9.897-8.386,19.089-15.476,26.964c-0.08,0.091-0.159,0.182-0.239,0.273
			c-14.033,15.397-33.963,24.214-54.746,24.214h-148.92c-20.93,0-40.974-8.931-54.996-24.498
			C119.488,218.026,114.25,208.879,111.102,198.959z M74.185,342.186c-46.076-46.076-56.802-85.618-49.394-93.027
			c7.409-7.397,46.951,3.329,93.015,49.394c1.648,1.636,3.147,3.193,4.591,4.693c7.363,18.43,18.624,35.327,32.804,49.257v34.838
			c0,2.079,0.205,4.113,0.557,6.09C138.327,391.216,106.978,374.979,74.185,342.186z M337.902,339.845
			c-0.466,0.42-0.761,0.727-0.932,0.954c-1.761,2-2.829,4.613-2.829,7.488v39.054c0,4.659-2.92,8.636-7.034,10.226h-0.011
			c-1.216,0.477-2.545,0.75-3.931,0.75c-6.056,0-10.976-4.931-10.976-10.976v-27.293c0-6.284-5.091-11.363-11.363-11.363
			s-11.363,5.079-11.363,11.363v6.568c-10.715,3.034-21.794,4.591-33.066,4.591c-11.51,0-22.839-1.636-33.793-4.806v-6.352
			c0-6.284-5.091-11.363-11.363-11.363s-11.363,5.079-11.363,11.363v27.293c0,6.045-4.92,10.976-10.976,10.976
			s-10.976-4.931-10.976-10.976V347.64c0-3.182-1.318-6.056-3.42-8.124c-0.08-0.08-0.159-0.159-0.273-0.261
			c-13.897-12.715-24.782-28.714-31.463-46.28c-0.045-0.114-0.102-0.239-0.148-0.352c-2.693-7.102-4.727-14.522-6.045-22.066
			l-1.648-9.442c14.158,7.795,30.191,12.022,46.644,12.022h148.92c16.76,0,33.1-4.397,47.462-12.476l-1.739,9.897
			c-1.25,7.181-3.17,14.294-5.693,21.135C363.753,310.064,352.469,326.71,337.902,339.845z M482.788,280.759
			c-8.772,19.385-24.748,41.201-44.974,61.427c-32.747,32.747-64.052,48.985-81.505,51.235c0.364-1.977,0.557-4,0.557-6.079v-34.145
			c14.897-14.419,26.589-32.031,34.077-51.337c1.114-1.136,2.204-2.25,3.25-3.307c46.076-46.065,85.607-56.802,93.015-49.394
			C490.595,252.546,490.538,263.636,482.788,280.759z"/>
	</g>
</g>
<g>
	<g>
		<path d="M196.391,79.753h-14.817c-6.272,0-11.363,5.079-11.363,11.363c0,6.272,5.09,11.363,11.363,11.363h14.817
			c6.272,0,11.363-5.091,11.363-11.363C207.754,84.832,202.663,79.753,196.391,79.753z"/>
	</g>
</g>
<g id="SVGCleanerId_1">
	<g>
		<path d="M330.494,79.753h-14.817c-6.272,0-11.363,5.079-11.363,11.363c0,6.272,5.091,11.363,11.363,11.363h14.817
			c6.272,0,11.363-5.091,11.363-11.363C341.857,84.832,336.766,79.753,330.494,79.753z"/>
	</g>
</g>
<g>
	<g>
		<path d="M330.494,79.753h-14.817c-6.272,0-11.363,5.079-11.363,11.363c0,6.272,5.091,11.363,11.363,11.363h14.817
			c6.272,0,11.363-5.091,11.363-11.363C341.857,84.832,336.766,79.753,330.494,79.753z"/>
	</g>
</g>
<g>
	<g>
		<path d="M196.391,79.753h-14.817c-6.272,0-11.363,5.079-11.363,11.363c0,6.272,5.09,11.363,11.363,11.363h14.817
			c6.272,0,11.363-5.091,11.363-11.363C207.754,84.832,202.663,79.753,196.391,79.753z"/>
	</g>
</g>
<g>
</g>
<g>
</g>
<g>
</g>
<g>
</g>
<g>
</g>
<g>
</g>
<g>
</g>
<g>
</g>
<g>
</g>
<g>
</g>
<g>
</g>
<g>
</g>
<g>
</g>
<g>
</g>
<g>
</g>
</svg>
