<svg width="24" height="24" viewBox="0 0 24 24" fill="none" xmlns="http://www.w3.org/2000/svg">
<path d="M13.7399 4.23001C12.8999 3.23001 12.1699 2.23001 12.0299 2.01001H11.9999C11.8599 2.22001 11.1299 3.23001 10.2899 4.23001C3.08986 13.42 11.4299 19.62 11.4299 19.62L11.4999 19.67C11.5599 20.62 11.7199 22 11.7199 22H12.3399C12.3399 22 12.4899 20.63 12.5499 19.67L12.6199 19.61C12.6199 19.61 20.9399 13.42 13.7399 4.23001ZM11.9999 19.48C11.8246 19.336 11.6638 19.1753 11.5199 19L11.9999 9.00001L12.4499 19C12.315 19.1735 12.1643 19.3342 11.9999 19.48Z" fill="black"/>
</svg>
