<svg width="24" height="24" viewBox="0 0 24 24" fill="none" xmlns="http://www.w3.org/2000/svg">
<path d="M5.21294 4.98732C5.88494 5.53292 6.13614 5.49132 7.39854 5.40652L19.2913 4.69292C19.5441 4.69292 19.3345 4.44172 19.2497 4.40012L17.2737 2.97132C16.8961 2.67692 16.3921 2.34092 15.4257 2.42572L3.90894 3.26572C3.48974 3.30732 3.40494 3.51692 3.57294 3.68492L5.21294 4.98732ZM5.92654 7.75852V20.2721C5.92654 20.9441 6.26254 21.1969 7.01934 21.1553L20.0913 20.3985C20.8465 20.3569 20.9313 19.8945 20.9313 19.3489V6.91852C20.9313 6.37452 20.7217 6.07852 20.2593 6.12012L6.59854 6.91852C6.09454 6.96012 5.92654 7.21292 5.92654 7.75852ZM18.8305 8.43052C18.9137 8.80812 18.8305 9.18572 18.4513 9.22892L17.8209 9.35372V18.5921C17.2753 18.8865 16.7697 19.0561 16.3489 19.0561C15.6769 19.0561 15.5089 18.8449 15.0049 18.2145L10.8849 11.7473V18.0049L12.1889 18.2993C12.1889 18.2993 12.1889 19.0545 11.1377 19.0545L8.23854 19.2225C8.15374 19.0545 8.23854 18.6353 8.53294 18.5505L9.28814 18.3425V10.0673L8.24014 9.98412C8.15534 9.60652 8.36494 9.06092 8.95374 9.01772L12.0641 8.80972L16.3521 15.3601V9.56492L15.2593 9.43852C15.1745 8.97612 15.5105 8.64012 15.9313 8.59852L18.8321 8.43052H18.8305ZM2.94254 2.13132L14.9217 1.24972C16.3921 1.12172 16.7697 1.20812 17.6945 1.88012L21.5185 4.56812C22.1505 5.02892 22.3601 5.15532 22.3601 5.65932V20.3985C22.3601 21.3233 22.0241 21.8705 20.8465 21.9521L6.93614 22.7921C6.05294 22.8353 5.63214 22.7089 5.16974 22.1201L2.35374 18.4673C1.84974 17.7953 1.64014 17.2913 1.64014 16.7025V3.60012C1.64014 2.84492 1.97614 2.21452 2.94254 2.13132Z" fill="black"/>
</svg>
