<svg width="24" height="24" viewBox="0 0 24 24" fill="none" xmlns="http://www.w3.org/2000/svg">
<path d="M18.68 12.32C18.2622 11.9022 17.7661 11.571 17.22 11.3453C16.674 11.1196 16.0888 11.0039 15.4979 11.0048C14.9071 11.0057 14.3222 11.1233 13.7769 11.3507C13.2316 11.5781 12.7365 11.9109 12.32 12.33C11.9015 12.7471 11.5695 13.2427 11.343 13.7884C11.1164 14.3341 10.9998 14.9192 10.9998 15.51C10.9998 16.1008 11.1164 16.6859 11.343 17.2316C11.5695 17.7773 11.9015 18.2729 12.32 18.69C13.041 19.4084 13.9838 19.8616 14.9952 19.976C16.0065 20.0904 17.0268 19.8592 17.89 19.32L21 22.39L22.39 21L19.3 17.89C20.43 16.12 20.17 13.8 18.68 12.32ZM17.27 17.27C16.29 18.25 14.71 18.24 13.73 17.27C12.76 16.29 12.76 14.71 13.74 13.73C14.71 12.76 16.29 12.76 17.27 13.73C18.24 14.71 18.24 16.29 17.27 17.27ZM10.9 20.1C10.2474 19.4406 9.74285 18.6497 9.42 17.78C6.27 17.25 4 15.76 4 14V17C4 19.21 7.58 21 12 21C11.6 20.74 11.23 20.44 10.9 20.1ZM4 9V12C4 13.68 6.07 15.12 9 15.7V15.5C9 14.57 9.2 13.65 9.58 12.81C6.34 12.3 4 10.79 4 9ZM12 3C7.58 3 4 4.79 4 7C4 9 7 10.68 10.85 11H10.9C12.1 9.74 13.76 9 15.5 9C16.41 9 17.31 9.19 18.14 9.56C18.6445 9.3299 19.0808 8.97325 19.4068 8.52468C19.7327 8.07611 19.937 7.55088 20 7C20 4.79 16.42 3 12 3Z" fill="black"/>
</svg>
