<svg width="24" height="24" viewBox="0 0 24 24" fill="none" xmlns="http://www.w3.org/2000/svg">
<g clip-path="url(#clip0_326_496)">
<path d="M0 0V24H24V0H0ZM10.1971 17.2278L7.97812 12.6548L5.8372 17.2169H3.75061L6.8213 11.367L3.85238 5.45156H6.01809L8.12006 9.94814L10.2044 5.44064H12.2374L9.26602 11.1814L12.4128 17.2278H10.197H10.1971ZM19.7108 16.7476C18.794 17.1842 17.8335 17.3806 16.9168 17.3806C14.5485 17.3916 12.8568 15.9291 12.8568 12.9604C12.9338 9.91936 14.9602 8.22244 17.8008 8.45292V5.45156H19.7435V15.558C19.7475 16.7633 19.8806 16.6474 19.7108 16.7476ZM17.8008 10.1664V15.5689C15.8833 16.0665 14.823 14.8995 14.8322 12.8731C14.8394 10.7949 16.2048 9.71639 17.8008 10.1664Z" fill="black"/>
</g>
<defs>
<clipPath id="clip0_326_496">
<rect width="24" height="24" rx="2" fill="white"/>
</clipPath>
</defs>
</svg>
