<svg width="22" height="22" viewBox="0 0 22 22" fill="none" xmlns="http://www.w3.org/2000/svg">
<g clip-path="url(#clip0_326_454)">
<path d="M3.76292 3.76291C3.76292 3.76291 8.39483 1.44833 10.7103 0.28966C11.1318 0.0819084 11.5984 -0.0173425 12.0679 0.000909992C12.7701 0.0439933 13.6052 0.723243 13.6052 0.723243L22 9.11899V18.0922H18.0923V22H8.97325L0.72325 13.75C0.27775 13.2917 0 12.6454 0 12.0129C0 11.7205 0.165 11.2631 0.289667 11L3.76292 3.76291ZM4.38533 4.38533V15.1901C4.38717 15.6878 4.40458 16.1287 4.84183 16.5724L9.35367 21.0833H17.1756V17.1756L4.38533 4.38533ZM15.4358 3.76383C14.6117 2.94249 13.7775 2.13216 12.9241 1.34108C12.6473 1.09633 12.4043 0.912077 11.9433 0.917577C11.6041 0.93041 11.1458 1.09633 11.1458 1.09633L5.81258 3.76291L15.4358 3.76383Z" fill="black"/>
</g>
<defs>
<clipPath id="clip0_326_454">
<rect width="22" height="22" fill="white"/>
</clipPath>
</defs>
</svg>
