<svg width="24" height="24" viewBox="0 0 24 24" fill="none" xmlns="http://www.w3.org/2000/svg">
<g clip-path="url(#clip0_326_470)">
<path d="M12 23.9561C11.658 23.9561 11.34 23.8671 11.043 23.7131L8.014 21.9751C7.559 21.7331 7.787 21.6451 7.924 21.6011C8.538 21.4031 8.652 21.3591 9.29 21.0061C9.358 20.9621 9.45 20.9841 9.518 21.0281L11.841 22.3711C11.931 22.4151 12.046 22.4151 12.114 22.3711L21.201 17.2871C21.291 17.2431 21.337 17.1551 21.337 17.0451V6.89911C21.337 6.78911 21.292 6.70111 21.201 6.65711L12.114 1.59611C12.023 1.55211 11.909 1.55211 11.841 1.59611L2.754 6.65711C2.663 6.70111 2.617 6.81111 2.617 6.89911V17.0451C2.617 17.1331 2.663 17.2431 2.754 17.2871L5.236 18.6741C6.58 19.3341 7.422 18.5641 7.422 17.7941V7.78011C7.422 7.64811 7.536 7.51611 7.696 7.51611H8.857C8.994 7.51611 9.13 7.62611 9.13 7.78011V17.7931C9.13 19.5321 8.151 20.5441 6.443 20.5441C5.919 20.5441 5.509 20.5441 4.348 19.9941L1.957 18.6741C1.66888 18.5157 1.42828 18.2832 1.26005 18.0007C1.09181 17.7182 1.00204 17.3959 1 17.0671V6.92111C1 6.26111 1.364 5.64511 1.957 5.31511L11.044 0.230109C11.3398 0.0783947 11.6675 -0.000732422 12 -0.000732422C12.3325 -0.000732422 12.6602 0.0783947 12.956 0.230109L22.044 5.31411C22.636 5.64411 23 6.26011 23 6.92011V17.0661C23 17.7261 22.636 18.3421 22.044 18.6731L12.956 23.7561C12.6543 23.8869 12.3289 23.9543 12 23.9541V23.9561ZM14.801 16.9791C10.816 16.9791 9.996 15.2191 9.996 13.7221C9.996 13.5901 10.11 13.4581 10.269 13.4581H11.453C11.59 13.4581 11.703 13.5461 11.703 13.6781C11.886 14.8441 12.41 15.4161 14.824 15.4161C16.737 15.4161 17.557 14.9981 17.557 14.0081C17.557 13.4361 17.329 13.0181 14.346 12.7321C11.863 12.4891 10.315 11.9621 10.315 10.0471C10.315 8.26411 11.863 7.20711 14.46 7.20711C17.375 7.20711 18.81 8.17611 18.992 10.2891C18.99 10.3606 18.9659 10.4298 18.923 10.4871C18.878 10.5311 18.81 10.5751 18.741 10.5751H17.557C17.4995 10.5737 17.444 10.5536 17.3989 10.5179C17.3538 10.4822 17.3215 10.4328 17.307 10.3771C17.033 9.16711 16.327 8.77011 14.46 8.77011C12.364 8.77011 12.114 9.47411 12.114 10.0021C12.114 10.6411 12.41 10.8391 15.234 11.1911C18.035 11.5431 19.356 12.0491 19.356 13.9411C19.333 15.8791 17.694 16.9791 14.801 16.9791Z" fill="black"/>
</g>
<defs>
<clipPath id="clip0_326_470">
<rect width="24" height="24" fill="white"/>
</clipPath>
</defs>
</svg>
