<svg width="24" height="24" viewBox="0 0 24 24" fill="none" xmlns="http://www.w3.org/2000/svg">
<path d="M20 18.6899L12.7 22.7399C12.2 22.9999 11.7 22.9999 11.2 22.7399L4 18.6899L17.05 5.53994L17.4 5.43994C17.7 5.43994 17.87 5.56994 17.9 5.83994L20 18.6899ZM9.35 5.73994L4.8 13.2899L6.7 1.33994C6.73 1.06994 6.9 0.939941 7.2 0.939941C7.4 0.939941 7.53 0.999941 7.6 1.18994L9.75 5.13994L9.35 5.73994ZM13.85 6.99994L4.3 16.5899L11.55 4.28994C11.65 4.08994 11.8 3.99994 12 3.99994C12.2 3.99994 12.33 4.08994 12.4 4.28994L13.85 6.99994Z" fill="black"/>
</svg>
