<svg width="24" height="24" viewBox="0 0 24 24" fill="none" xmlns="http://www.w3.org/2000/svg">
<path d="M11.53 2C11.53 4.4 13.5 6.35 15.88 6.35H17.66V8.05C17.66 10.45 19.6 12.39 22 12.4V2.84C22 2.61722 21.9115 2.40356 21.754 2.24603C21.5964 2.0885 21.3828 2 21.16 2H11.53ZM6.77 6.8C6.77578 7.94926 7.23489 9.0498 8.04755 9.86246C8.8602 10.6751 9.96074 11.1342 11.11 11.14H12.91V12.86C12.9158 14.0093 13.3749 15.1098 14.1875 15.9225C15.0002 16.7351 16.1007 17.1942 17.25 17.2V7.63C17.2472 7.41076 17.1588 7.20129 17.0037 7.04625C16.8487 6.89121 16.6392 6.80285 16.42 6.8H6.77ZM2 11.6C2 14 3.95 15.94 6.35 15.94H8.13V17.66C8.14 20.05 10.08 22 12.47 22V12.43C12.47 12.2072 12.3815 11.9936 12.224 11.836C12.0664 11.6785 11.8528 11.59 11.63 11.59L2 11.6Z" fill="black"/>
</svg>
