<svg width="24" height="24" viewBox="0 0 24 24" fill="none" xmlns="http://www.w3.org/2000/svg">
<path d="M3 6.25V17.75C3 18.612 3.34241 19.4386 3.9519 20.0481C4.5614 20.6576 5.38805 21 6.25 21H17.75C18.612 21 19.4386 20.6576 20.0481 20.0481C20.6576 19.4386 21 18.612 21 17.75V6.25C21 5.38805 20.6576 4.5614 20.0481 3.9519C19.4386 3.34241 18.612 3 17.75 3H6.25C5.38805 3 4.5614 3.34241 3.9519 3.9519C3.34241 4.5614 3 5.38805 3 6.25ZM12 9.5C12.1989 9.5 12.3897 9.57902 12.5303 9.71967C12.671 9.86032 12.75 10.0511 12.75 10.25V16.25C12.75 16.7141 12.5656 17.1592 12.2374 17.4874C11.9092 17.8156 11.4641 18 11 18H9.75C9.55109 18 9.36032 17.921 9.21967 17.7803C9.07902 17.6397 9 17.4489 9 17.25C9 17.0511 9.07902 16.8603 9.21967 16.7197C9.36032 16.579 9.55109 16.5 9.75 16.5H11C11.0663 16.5 11.1299 16.4737 11.1768 16.4268C11.2237 16.3799 11.25 16.3163 11.25 16.25V10.25C11.25 10.0511 11.329 9.86032 11.4697 9.71967C11.6103 9.57902 11.8011 9.5 12 9.5ZM14 11.25C14 10.284 14.784 9.5 15.75 9.5H17.25C17.4489 9.5 17.6397 9.57902 17.7803 9.71967C17.921 9.86032 18 10.0511 18 10.25C18 10.4489 17.921 10.6397 17.7803 10.7803C17.6397 10.921 17.4489 11 17.25 11H15.75C15.6837 11 15.6201 11.0263 15.5732 11.0732C15.5263 11.1201 15.5 11.1837 15.5 11.25V12.75C15.5 12.888 15.612 13 15.75 13H16.25C17.216 13 18 13.784 18 14.75V16.25C18 16.7141 17.8156 17.1592 17.4874 17.4874C17.1592 17.8156 16.7141 18 16.25 18H14.75C14.5511 18 14.3603 17.921 14.2197 17.7803C14.079 17.6397 14 17.4489 14 17.25C14 17.0511 14.079 16.8603 14.2197 16.7197C14.3603 16.579 14.5511 16.5 14.75 16.5H16.25C16.3163 16.5 16.3799 16.4737 16.4268 16.4268C16.4737 16.3799 16.5 16.3163 16.5 16.25V14.75C16.5 14.6837 16.4737 14.6201 16.4268 14.5732C16.3799 14.5263 16.3163 14.5 16.25 14.5H15.75C15.2859 14.5 14.8408 14.3156 14.5126 13.9874C14.1844 13.6592 14 13.2141 14 12.75V11.25Z" fill="black"/>
</svg>
