<svg width="32" height="32" viewBox="0 0 32 32" fill="none" xmlns="http://www.w3.org/2000/svg">
<path d="M21.3 6C21.2204 6 21.1441 6.03161 21.0879 6.08787C21.0316 6.14413 21 6.22044 21 6.3V11.797L19.754 11.07C19.6771 11.0245 19.5894 11.0005 19.5 11.0005C19.4106 11.0005 19.3229 11.0245 19.246 11.07L16.252 12.816C16.1755 12.8602 16.1119 12.9237 16.0676 13.0003C16.0234 13.0768 16.0001 13.1636 16 13.252V16.748C16 16.928 16.096 17.094 16.252 17.184L19.246 18.93C19.3229 18.9755 19.4106 18.9995 19.5 18.9995C19.5894 18.9995 19.6771 18.9755 19.754 18.93L22.748 17.184C22.8245 17.1398 22.8881 17.0763 22.9324 16.9997C22.9766 16.9232 22.9999 16.8364 23 16.748V7.23C22.9998 7.14279 22.9767 7.05715 22.9332 6.98156C22.8898 6.90597 22.8273 6.84304 22.752 6.799L21.449 6.041C21.4042 6.01451 21.3531 6.00036 21.301 6H21.3ZM11.5 11.002C11.4108 11.0019 11.3232 11.0253 11.246 11.07L8.252 12.816C8.17545 12.8602 8.11187 12.9237 8.06764 13.0003C8.02341 13.0768 8.00008 13.1636 8 13.252V16.748C8 16.928 8.096 17.094 8.252 17.184L11.246 18.93C11.403 19.02 11.596 19.02 11.754 18.93L14.748 17.184C14.8245 17.1398 14.8881 17.0763 14.9324 16.9997C14.9766 16.9232 14.9999 16.8364 15 16.748V13.252C15.0001 13.1636 14.9769 13.0767 14.9326 13.0001C14.8884 12.9236 14.8247 12.86 14.748 12.816L11.754 11.07C11.6768 11.0253 11.5892 11.0019 11.5 11.002ZM27.5 11.002C27.4108 11.0016 27.3231 11.025 27.246 11.07L24.252 12.816C24.1755 12.8602 24.1119 12.9237 24.0676 13.0003C24.0234 13.0768 24.0001 13.1636 24 13.252V16.748C24 16.928 24.096 17.094 24.252 17.184L27.156 18.939C27.2328 18.9856 27.3207 19.0105 27.4104 19.0112C27.5002 19.0119 27.5885 18.9884 27.666 18.943L29.094 18.113C29.1276 18.0932 29.1554 18.065 29.1748 18.0311C29.1941 17.9973 29.2043 17.959 29.2043 17.92C29.2043 17.881 29.1941 17.8427 29.1748 17.8089C29.1554 17.775 29.1276 17.7468 29.094 17.727L26 15.904V14.11L27.5 13.237L29 14.11V15.36C29 15.527 29.14 15.553 29.234 15.497C29.7395 15.2018 30.2455 14.9075 30.752 14.614C30.8273 14.57 30.8899 14.5071 30.9334 14.4315C30.9769 14.3559 30.9999 14.2702 31 14.183V13.253C31.0001 13.1646 30.9769 13.0777 30.9326 13.0011C30.8884 12.9246 30.8247 12.861 30.748 12.817L27.754 11.071C27.6769 11.0262 27.5892 11.0027 27.5 11.003V11.002ZM3.5 11.004C3.41078 11.0036 3.32306 11.027 3.246 11.072L0.252 12.816C0.175363 12.8606 0.111762 12.9245 0.0675435 13.0014C0.0233251 13.0782 3.59317e-05 13.1653 0 13.254V17.717C0 17.935 0.236 18.07 0.424 17.961L1.752 17.188C1.82742 17.1439 1.88999 17.0808 1.93349 17.005C1.977 16.9292 1.99993 16.8434 2 16.756V14.113L3.5 13.238L5 14.113V16.756C5.00015 16.8432 5.02312 16.9289 5.06662 17.0045C5.11013 17.0801 5.17266 17.143 5.248 17.187L6.576 17.961C6.61888 17.986 6.66759 17.9992 6.71722 17.9994C6.76685 17.9995 6.81564 17.9865 6.85866 17.9618C6.90167 17.937 6.93739 17.9014 6.96221 17.8584C6.98703 17.8154 7.00006 17.7666 7 17.717V13.254C6.99996 13.1653 6.97668 13.0782 6.93246 13.0014C6.88824 12.9245 6.82464 12.8606 6.748 12.816L3.754 11.072C3.67694 11.027 3.58922 11.0036 3.5 11.004ZM19.5 13.236L21 14.111V15.889L19.5 16.764L18 15.889V14.11L19.5 13.235V13.236ZM27.5 14.004L26.643 14.504V15.502L27.5 16L28.357 15.502V14.504L27.5 14.004ZM15.406 17.998C15.3021 17.9974 15.1998 18.0236 15.109 18.074L12.297 19.7C12.2065 19.7513 12.1313 19.8258 12.0791 19.9157C12.0269 20.0057 11.9996 20.108 12 20.212V23.458C12 23.667 12.117 23.864 12.297 23.97L13.037 24.392C13.392 24.567 13.523 24.567 13.684 24.567C14.214 24.567 14.516 24.25 14.516 23.69V20.483C14.5163 20.4721 14.5143 20.4612 14.5103 20.451C14.5063 20.4408 14.5003 20.4315 14.4927 20.4237C14.4851 20.4159 14.4759 20.4097 14.4658 20.4054C14.4558 20.4012 14.4449 20.399 14.434 20.399H14.078C14.0557 20.399 14.0344 20.4079 14.0186 20.4236C14.0029 20.4394 13.994 20.4607 13.994 20.483V23.69C13.994 23.933 13.737 24.183 13.318 23.974L12.548 23.53C12.5354 23.5221 12.525 23.5112 12.5177 23.4983C12.5104 23.4854 12.5064 23.4708 12.506 23.456V20.21C12.506 20.181 12.52 20.147 12.549 20.132L15.361 18.511C15.3745 18.5036 15.3896 18.4997 15.405 18.4997C15.4204 18.4997 15.4355 18.5036 15.449 18.511L18.264 20.131C18.293 20.147 18.307 20.176 18.307 20.21V23.456C18.3069 23.4716 18.303 23.4869 18.2954 23.5005C18.2879 23.5141 18.2771 23.5256 18.264 23.534L15.449 25.161C15.4355 25.1684 15.4204 25.1723 15.405 25.1723C15.3896 25.1723 15.3745 25.1684 15.361 25.161L14.643 24.733C14.623 24.723 14.593 24.718 14.574 24.728C14.4424 24.8124 14.2997 24.878 14.15 24.923C14.101 24.938 14.035 24.968 14.176 25.046L15.109 25.601C15.2002 25.6506 15.3021 25.6774 15.406 25.679C15.5095 25.68 15.6111 25.6516 15.699 25.597L18.512 23.97C18.6025 23.9187 18.6777 23.8442 18.7299 23.7543C18.7821 23.6643 18.8094 23.562 18.809 23.458V20.212C18.8077 20.1083 18.7797 20.0067 18.7276 19.9171C18.6756 19.8274 18.6013 19.7526 18.512 19.7L15.699 18.075C15.6097 18.0244 15.5086 17.9981 15.406 17.999V17.998ZM19.793 19.496C19.7221 19.4961 19.6519 19.5102 19.5864 19.5375C19.521 19.5647 19.4615 19.6046 19.4115 19.6549C19.3104 19.7563 19.2537 19.8938 19.254 20.037C19.2543 20.1802 19.3114 20.3175 19.4129 20.4185C19.5143 20.5196 19.6518 20.5763 19.795 20.576C19.9382 20.5757 20.0755 20.5186 20.1765 20.4171C20.2776 20.3157 20.3343 20.1782 20.334 20.035C20.3337 19.8918 20.2766 19.7545 20.1751 19.6535C20.0737 19.5524 19.9362 19.4957 19.793 19.496ZM19.787 19.582C20.041 19.582 20.247 19.782 20.247 20.035C20.2452 20.1564 20.1961 20.2724 20.1103 20.3583C20.0244 20.4441 19.9084 20.4932 19.787 20.495C19.6662 20.4937 19.5509 20.4445 19.4664 20.3583C19.3818 20.272 19.3349 20.1558 19.336 20.035C19.3356 19.9756 19.347 19.9166 19.3695 19.8616C19.392 19.8066 19.4252 19.7566 19.4671 19.7145C19.509 19.6724 19.5589 19.639 19.6138 19.6163C19.6687 19.5935 19.7276 19.5819 19.787 19.582ZM19.59 19.729V20.336H19.705V20.094H19.813C19.857 20.094 19.867 20.112 19.877 20.146C19.877 20.151 19.895 20.309 19.9 20.338H20.025C20.0091 20.2853 19.9994 20.2309 19.996 20.176C19.982 20.098 19.978 20.044 19.895 20.039C19.939 20.024 20.012 20.001 20.012 19.889C20.012 19.728 19.872 19.729 19.799 19.729H19.589H19.59ZM19.705 19.826H19.803C19.833 19.826 19.891 19.826 19.891 19.908C19.891 19.942 19.876 19.998 19.797 19.996H19.705V19.826ZM16.16 20.322C15.357 20.322 14.88 20.665 14.88 21.229C14.88 21.847 15.358 22.012 16.127 22.089C17.047 22.182 17.119 22.314 17.119 22.494C17.119 22.81 16.865 22.941 16.271 22.941C15.526 22.941 15.363 22.757 15.309 22.387C15.304 22.347 15.269 22.318 15.225 22.318H14.859C14.8481 22.318 14.8372 22.3202 14.8272 22.3244C14.8171 22.3287 14.8079 22.3349 14.8003 22.3427C14.7927 22.3505 14.7867 22.3598 14.7827 22.37C14.7787 22.3802 14.7767 22.3911 14.777 22.402C14.777 22.874 15.035 23.439 16.266 23.439C17.169 23.439 17.68 23.089 17.68 22.475C17.68 21.867 17.27 21.705 16.404 21.588C15.528 21.471 15.441 21.412 15.441 21.207C15.441 21.037 15.513 20.814 16.161 20.814C16.739 20.814 16.955 20.941 17.043 21.33C17.053 21.37 17.08 21.393 17.119 21.393H17.484C17.508 21.393 17.529 21.383 17.543 21.369C17.558 21.35 17.567 21.331 17.563 21.307C17.505 20.635 17.061 20.322 16.16 20.322Z" fill="black"/>
</svg>
