<svg width="24" height="24" viewBox="0 0 24 24" fill="none" xmlns="http://www.w3.org/2000/svg">
<path d="M5.25 3H18.75C19.3467 3 19.919 3.23705 20.341 3.65901C20.7629 4.08097 21 4.65326 21 5.25V18.75C21 19.3467 20.7629 19.919 20.341 20.341C19.919 20.7629 19.3467 21 18.75 21H5.25C4.65326 21 4.08097 20.7629 3.65901 20.341C3.23705 19.919 3 19.3467 3 18.75V5.25C3 4.65326 3.23705 4.08097 3.65901 3.65901C4.08097 3.23705 4.65326 3 5.25 3ZM13.17 6.42V12.18C13.17 12.776 13.654 13.26 14.25 13.26H17.58C17.8664 13.26 18.1411 13.1462 18.3437 12.9437C18.5462 12.7411 18.66 12.4664 18.66 12.18V6.42C18.66 6.13357 18.5462 5.85886 18.3437 5.65632C18.1411 5.45379 17.8664 5.34 17.58 5.34H14.25C13.9636 5.34 13.6889 5.45379 13.4863 5.65632C13.2838 5.85886 13.17 6.13357 13.17 6.42ZM5.34 6.42V16.68C5.34 17.276 5.824 17.76 6.42 17.76H9.75C10.0364 17.76 10.3111 17.6462 10.5137 17.4437C10.7162 17.2411 10.83 16.9664 10.83 16.68V6.42C10.83 6.13357 10.7162 5.85886 10.5137 5.65632C10.3111 5.45379 10.0364 5.34 9.75 5.34H6.42C6.13357 5.34 5.85886 5.45379 5.65632 5.65632C5.45379 5.85886 5.34 6.13357 5.34 6.42Z" fill="black"/>
</svg>
